<svg width="538" height="174" viewBox="0 0 538 174" fill="none" xmlns="http://www.w3.org/2000/svg" style="background: black;">
<path d="M524.965 2.86102e-06C518.082 -2.1139e-05 512.433 5.70607 512.5 12.5887C512.56 18.842 517.224 23.9937 523.266 24.8173C523.34 24.8275 523.407 24.7687 523.407 24.6932V17.086C523.407 17.0272 523.366 16.9769 523.308 16.9644C519.801 16.2048 517.174 13.0842 517.174 9.3498C517.174 5.05083 520.695 1.54291 524.994 1.55834C529.284 1.57374 532.757 5.05616 532.757 9.34972C532.757 13.0841 530.129 16.2047 526.623 16.9644C526.565 16.9769 526.524 17.0273 526.524 17.0862V24.6933C526.524 24.7688 526.59 24.8275 526.665 24.8174C532.746 23.9884 537.432 18.7747 537.432 12.4663C537.432 5.58136 531.85 2.6861e-05 524.965 2.86102e-06Z" fill="white"/>
<path d="M12.235 74.9088H6.56581V69.2402H5.66795V74.9088H0V75.806H5.66795V81.4746H6.56581V75.806H12.235V74.9088Z" fill="white"/>
<path d="M531.084 74.9088H525.415V69.2402H524.517V74.9088H518.849V75.806H524.517V81.4746H525.415V75.806H531.084V74.9088Z" fill="white"/>
<path d="M221.63 66.6555V12.4069L209.289 0.065918H171.791V150.707H191.726V83.933H201.695V150.707H221.63V84.1085L215.277 77.7554L210.529 77.756V73.0086H215.277L221.63 66.6555ZM201.695 66.8427H191.726V17.1537H201.695V66.8427Z" fill="white"/>
<path d="M149.489 0.065918H124.333L111.993 12.4063V150.699H131.928V83.928H141.896V150.699H161.829V12.4063L149.489 0.065918ZM141.896 66.8427H131.928V17.1531H141.896V66.8427Z" fill="white"/>
<path d="M89.6793 0.065918H70.8756L64.5225 6.41901V11.1658H59.7757V6.41901L53.4226 0.065918H34.6183L22.2773 12.4069V150.707H42.2137V17.1537H52.1809L52.1822 150.707H72.1173V17.1537H82.0851V150.707H102.02V12.4069L89.6793 0.065918Z" fill="white"/>
<path d="M494.308 0.065918H456.812V150.699H476.747V17.1531H486.714V150.699H506.648V12.4063L494.308 0.065918Z" fill="white"/>
<path d="M269.091 0.065918H243.934L231.595 12.4063V150.699H251.53V83.928H261.497V150.699H281.431V12.4063L269.091 0.065918ZM261.497 66.8427H251.53V17.1531H261.497V66.8427Z" fill="white"/>
<path d="M434.504 0.065918H409.346L397.007 12.4063V138.358L409.346 150.698H434.504L446.844 138.358V12.4063L434.504 0.065918ZM426.91 133.62H416.942V17.1525H426.91V133.62Z" fill="white"/>
<path d="M286.415 17.153H298.518V150.707H318.453V17.153H330.557V0.0756836H286.415V17.153Z" fill="white"/>
<path d="M367.105 66.8427H357.137V0.065918H337.202V150.699H357.137V83.9305H367.105V150.699H387.04V0.065918H367.105V66.8427Z" fill="white"/>
<path d="M41.4374 160.716H38.0337V160.797V172.783V172.946H41.4374V160.716Z" fill="white"/>
<path d="M35.0879 160.716H31.6841V172.946H35.0879V160.716Z" fill="white"/>
<path d="M47.787 160.716H44.3833V172.946H47.787V160.716Z" fill="white"/>
<path d="M23.6357 160.716H22.2773V172.946H23.6357V160.716Z" fill="white"/>
<path d="M29.0794 160.716H27.7212V172.946H29.0794V160.716Z" fill="white"/>
<path d="M59.0625 160.716H55.6587V172.946H59.0625V160.716Z" fill="white"/>
<path d="M72.1025 160.716H70.7441V172.946H72.1025V160.716Z" fill="white"/>
<path d="M69.3845 160.716H68.0181V172.946H69.3845V160.716Z" fill="white"/>
<path d="M63.0353 160.716H61.6689V172.946H63.0353V160.716Z" fill="white"/>
<path d="M52.406 160.716H51.0396V172.946H52.406V160.716Z" fill="white"/>
<path d="M65.7527 160.716H64.3945V172.946H65.7527V160.716Z" fill="white"/>
<path d="M26.3524 160.716H24.9941V172.946H26.3524V160.716Z" fill="white"/>
<path d="M111.966 160.715V172.946H124.198V160.715H111.966ZM123.3 168.991L120.243 172.048H115.92L112.864 168.991V164.668L115.92 161.611H120.243L123.3 164.668V168.991Z" fill="white"/>
<path d="M118.082 164.791C116.956 164.791 116.042 165.704 116.042 166.83C116.042 167.957 116.956 168.87 118.082 168.87C119.208 168.87 120.121 167.957 120.121 166.83C120.121 165.704 119.208 164.791 118.082 164.791Z" fill="white"/>
<path d="M82.0674 172.312V172.945H82.704L86.7796 168.869H89.5875L93.6648 172.946H94.2983V172.311L90.2224 168.235V165.426L94.2992 161.349V160.715H93.6645L89.5886 164.791H86.7783L82.7013 160.714H82.0683V161.351L86.1442 165.426V168.235L82.0674 172.312Z" fill="white"/>
<path d="M204.154 168.031H201.691V170.494H204.154V168.031Z" fill="white"/>
<path d="M209.079 168.031H206.616V170.494H209.079V168.031Z" fill="white"/>
<path d="M206.616 170.494H204.154V172.957H206.616V170.494Z" fill="white"/>
<path d="M206.616 165.569H204.154V168.032H206.616V165.569Z" fill="white"/>
<path d="M214.003 168.031H211.541V170.494H214.003V168.031Z" fill="white"/>
<path d="M211.541 170.494H209.079V172.957H211.541V170.494Z" fill="white"/>
<path d="M211.541 165.569H209.079V168.032H211.541V165.569Z" fill="white"/>
<path d="M214.003 160.645H201.642V163.107H214.003V160.645Z" fill="white"/>
<path d="M234.808 160.666V165.989H234.117V162.04H234.038L233.34 163.728H232.974L232.283 162.04H232.204V165.989H231.507V160.666H232.327L233.125 162.654H233.197L233.995 160.666H234.808Z" fill="white"/>
<path d="M239.553 163.686V165.989H238.798V164.384H237.007V165.989H236.252V163.728L237.417 160.666H238.41L239.553 163.686ZM238.798 163.728L237.957 161.475H237.863L237.022 163.728H238.798Z" fill="white"/>
<path d="M243.285 163.819L244.321 165.647V165.989H243.63L242.487 163.917H241.703V165.989H240.948V160.666H242.638C243.659 160.666 244.342 161.329 244.342 162.298C244.342 163.045 243.939 163.603 243.285 163.819ZM242.552 163.261C243.17 163.261 243.566 162.891 243.566 162.298C243.566 161.712 243.177 161.329 242.552 161.329H241.703V163.261H242.552Z" fill="white"/>
<path d="M249.045 163.686V165.989H248.289V164.384H246.499V165.989H245.744V163.728L246.909 160.666H247.901L249.045 163.686ZM248.289 163.728L247.448 161.475H247.355L246.513 163.728H248.289Z" fill="white"/>
<path d="M253.797 160.666V161.329H252.524V165.989H251.762V161.329H250.489V160.666H253.797Z" fill="white"/>
<path d="M258.536 160.666V165.989H257.781V163.659H255.99V165.989H255.235V160.666H255.99V162.989H257.781V160.666H258.536Z" fill="white"/>
<path d="M263.332 162.096V164.545C263.332 165.437 262.656 166.058 261.642 166.058C260.635 166.058 259.938 165.451 259.938 164.545V162.096C259.938 161.203 260.621 160.582 261.642 160.582C262.656 160.582 263.332 161.203 263.332 162.096ZM262.57 162.152C262.57 161.608 262.203 161.245 261.642 161.245C261.052 161.245 260.693 161.621 260.693 162.152V164.488C260.693 165.019 261.052 165.396 261.642 165.396C262.203 165.396 262.57 165.033 262.57 164.488V162.152Z" fill="white"/>
<path d="M268.027 160.666V165.989H267.265V164.105L265.481 161.852V165.989H264.726V160.666H265.488L267.265 162.919V160.666H268.027Z" fill="white"/>
<path d="M277.813 161.029L274.519 165.989H273.93V165.626L277.223 160.666H277.813V161.029Z" fill="white"/>
<path d="M287.017 160.666V161.329H285.744V165.989H284.982V161.329H283.709V160.666H287.017Z" fill="white"/>
<path d="M291.756 163.686V165.989H291V164.384H289.21V165.989H288.455V163.728L289.62 160.666H290.612L291.756 163.686ZM291 163.728L290.159 161.475H290.066L289.224 163.728H291Z" fill="white"/>
<path d="M296.552 160.666V164.545C296.552 165.438 295.875 166.059 294.862 166.059C293.855 166.059 293.157 165.451 293.157 164.545V160.666H293.912V164.489C293.912 165.019 294.272 165.396 294.862 165.396C295.423 165.396 295.789 165.033 295.789 164.489V160.666H296.552Z" fill="white"/>
<path d="M305.28 162.368V162.152C305.28 161.608 304.914 161.245 304.353 161.245C303.763 161.245 303.403 161.621 303.403 162.152V164.488C303.403 165.019 303.763 165.396 304.353 165.396C304.914 165.396 305.28 165.033 305.28 164.488V164.273H306.043V164.545C306.043 165.437 305.367 166.058 304.353 166.058C303.346 166.058 302.648 165.451 302.648 164.545V162.096C302.648 161.203 303.331 160.582 304.353 160.582C305.367 160.582 306.043 161.203 306.043 162.096V162.368H305.28Z" fill="white"/>
<path d="M308.192 161.329V162.982H310.235V163.652H308.192V165.326H310.738V165.989H307.437V160.666H310.738V161.329H308.192Z" fill="white"/>
<path d="M315.491 160.666V161.329H314.218V165.989H313.456V161.329H312.183V160.666H315.491Z" fill="white"/>
<path d="M318.963 161.329V165.326H320.229V165.989H316.928V165.326H318.201V161.329H316.928V160.666H320.229V161.329H318.963Z" fill="white"/>
<path d="M328.455 161.329V165.326H329.72V165.989H326.419V165.326H327.692V161.329H326.419V160.666H329.72V161.329H328.455Z" fill="white"/>
<path d="M334.609 160.666V161.029L333.574 165.068L333.358 165.989H332.28L331.021 161.029V160.666H331.733L332.768 165.068H332.862L333.898 160.666H334.609Z" fill="white"/>
<path d="M141.381 164.268C140.681 164.268 140.312 163.954 140.312 163.402C140.312 163.088 140.479 162.775 140.755 162.628C140.939 162.535 141.068 162.517 141.455 162.517C142.1 162.517 142.487 162.831 142.487 163.365C142.487 163.954 142.1 164.268 141.381 164.268ZM141.179 173.038C140.7 173.038 140.312 172.633 140.312 172.154C140.312 171.822 140.479 171.564 140.792 171.38C140.847 171.343 140.865 171.325 140.865 171.306C140.865 171.269 140.847 171.251 140.607 171.067C140.442 170.956 140.312 170.661 140.312 170.422C140.312 170.146 140.479 169.814 140.663 169.703C140.828 169.611 140.865 169.574 140.865 169.537C140.865 169.519 140.865 169.482 140.847 169.482L140.589 169.316C140.442 169.206 140.312 168.929 140.312 168.671C140.312 168.137 140.7 167.787 141.308 167.787C141.787 167.787 141.879 167.805 142.063 167.916C142.321 168.063 142.505 168.358 142.505 168.671C142.505 168.948 142.321 169.261 142.118 169.39C141.983 169.464 141.916 169.513 141.916 169.537C141.916 169.574 141.952 169.611 142.045 169.648C142.303 169.777 142.505 170.109 142.505 170.422C142.505 170.717 142.395 170.901 142.137 171.122C142.1 171.159 142.081 171.196 142.081 171.214C142.081 171.288 142.137 171.306 142.284 171.306H148.346C148.77 171.306 148.899 171.325 149.065 171.417C149.341 171.564 149.507 171.841 149.507 172.154C149.507 172.633 149.12 173.038 148.659 173.038H141.179ZM146.817 160.748C147.37 160.748 147.757 161.117 147.757 161.614C147.757 162.149 147.37 162.499 146.78 162.499H142.929C142.45 162.499 142.063 162.112 142.063 161.633C142.063 161.135 142.45 160.748 143.003 160.748H146.817ZM142.947 167.787C142.468 167.787 142.063 167.381 142.063 166.902C142.063 166.423 142.468 166.037 142.984 166.037H147.13C147.536 166.037 147.628 166.055 147.794 166.165C148.07 166.313 148.217 166.589 148.217 166.902C148.217 167.418 147.83 167.787 147.259 167.787H142.947ZM148.475 162.37C149.12 162.37 149.507 162.701 149.507 163.254C149.507 163.494 149.378 163.807 149.231 163.899L148.973 164.065C148.954 164.083 148.936 164.102 148.936 164.138C148.936 164.157 148.954 164.175 148.973 164.194L149.194 164.323C149.36 164.415 149.507 164.728 149.507 164.986C149.507 165.557 149.12 165.889 148.457 165.889C148.07 165.889 147.941 165.852 147.757 165.76C147.499 165.594 147.333 165.299 147.333 165.005C147.333 164.728 147.462 164.434 147.646 164.323L147.83 164.194C147.867 164.175 147.886 164.157 147.886 164.138C147.886 164.083 147.904 164.102 147.701 163.973C147.499 163.844 147.351 163.567 147.333 163.31V163.254C147.351 162.646 147.72 162.37 148.475 162.37Z" fill="white"/>
<path d="M152.582 164.046L152.324 164.231C152.306 164.249 152.306 164.268 152.306 164.286C152.306 164.323 152.392 164.391 152.564 164.489C152.729 164.599 152.858 164.894 152.858 165.152C152.858 165.465 152.674 165.797 152.416 165.926C152.269 166 152.048 166.037 151.734 166.037C151.071 166.037 150.684 165.723 150.684 165.152C150.684 164.876 150.85 164.544 151.053 164.434C151.219 164.36 151.237 164.341 151.237 164.305C151.237 164.268 151.219 164.249 151.219 164.231L150.942 164.046C150.795 163.954 150.684 163.659 150.684 163.42C150.684 162.867 151.053 162.535 151.716 162.535C152.195 162.535 152.324 162.554 152.527 162.72C152.729 162.886 152.858 163.143 152.858 163.42C152.858 163.641 152.729 163.954 152.582 164.046ZM151.826 167.805C152.49 167.805 152.877 168.137 152.877 168.671C152.877 168.929 152.748 169.224 152.6 169.334L152.361 169.482C152.324 169.5 152.306 169.537 152.306 169.556C152.306 169.593 152.342 169.63 152.471 169.685C152.692 169.777 152.895 170.127 152.895 170.403C152.895 170.735 152.711 171.048 152.416 171.196C152.269 171.269 152.14 171.288 151.79 171.288C151.108 171.288 150.703 170.974 150.703 170.422C150.703 170.182 150.831 169.906 150.979 169.795L151.255 169.593C151.255 169.593 151.274 169.574 151.274 169.556C151.274 169.537 151.255 169.5 151.237 169.5L151.016 169.353C150.85 169.243 150.684 168.911 150.703 168.69C150.739 168.063 151.071 167.805 151.826 167.805ZM157.225 160.748C157.723 160.748 158.11 161.135 158.11 161.614C158.11 162.167 157.723 162.517 157.133 162.517H153.319C152.822 162.517 152.434 162.13 152.434 161.651C152.434 161.117 152.822 160.748 153.411 160.748L157.225 160.748ZM153.282 167.787C152.84 167.787 152.453 167.381 152.453 166.921C152.453 166.442 152.84 166.055 153.301 166.055H157.262C157.778 166.055 158.128 166.405 158.128 166.884C158.128 167.418 157.741 167.787 157.188 167.787H153.282ZM156.912 171.306C157.409 171.306 157.539 171.325 157.686 171.398C157.981 171.564 158.146 171.841 158.146 172.135C158.146 172.67 157.76 173.038 157.188 173.038H153.282C152.858 173.038 152.471 172.614 152.471 172.172C152.471 171.73 152.858 171.306 153.264 171.306H156.912ZM159.547 164.065L159.363 164.194C159.326 164.212 159.307 164.231 159.307 164.268C159.307 164.323 159.344 164.341 159.455 164.378C159.676 164.47 159.879 164.82 159.879 165.115C159.879 165.686 159.473 166.018 158.81 166.018H158.699C158.073 166.018 157.704 165.668 157.704 165.133C157.704 164.857 157.87 164.544 158.054 164.434C158.257 164.305 158.275 164.305 158.275 164.268C158.275 164.249 158.257 164.212 158.239 164.212L157.999 164.065C157.833 163.954 157.686 163.641 157.686 163.383C157.686 163.07 157.87 162.775 158.165 162.628C158.312 162.535 158.46 162.517 158.828 162.517C159.491 162.517 159.879 162.831 159.879 163.402C159.879 163.641 159.731 163.954 159.547 164.065ZM158.183 167.879C158.331 167.805 158.497 167.787 158.847 167.787C159.51 167.787 159.897 168.1 159.897 168.653C159.897 168.911 159.749 169.224 159.565 169.334L159.381 169.464C159.344 169.482 159.344 169.5 159.344 169.519C159.344 169.574 159.363 169.593 159.491 169.667C159.731 169.777 159.897 170.09 159.897 170.385C159.897 170.698 159.731 171.011 159.455 171.159C159.307 171.233 159.086 171.269 158.773 171.269C158.11 171.269 157.723 170.956 157.723 170.403C157.723 170.146 157.888 169.814 158.054 169.722C158.257 169.611 158.294 169.593 158.294 169.537C158.294 169.482 158.294 169.482 158.11 169.39C157.907 169.279 157.723 168.948 157.723 168.69C157.723 168.339 157.888 168.045 158.183 167.879Z" fill="white"/>
<path d="M172.459 162.517C172.845 162.517 172.974 162.554 173.159 162.646C173.416 162.794 173.601 163.107 173.601 163.402C173.601 163.659 173.435 163.973 173.251 164.102L173.066 164.212C173.048 164.231 173.03 164.268 173.03 164.286C173.03 164.341 173.048 164.36 173.195 164.434C173.416 164.544 173.582 164.857 173.582 165.152C173.582 165.484 173.398 165.797 173.122 165.945C172.974 166.018 172.809 166.055 172.495 166.055C171.777 166.055 171.39 165.723 171.39 165.17C171.39 164.82 171.537 164.562 171.832 164.415C171.924 164.378 171.961 164.323 171.961 164.286C171.961 164.231 171.924 164.194 171.832 164.157C171.519 163.991 171.39 163.789 171.39 163.475C171.39 162.849 171.74 162.517 172.459 162.517ZM174.154 167.824C173.564 167.824 173.14 167.455 173.14 166.939C173.14 166.387 173.527 166.055 174.172 166.055H178.742C178.907 166.055 178.944 166.055 178.944 166.018C178.944 166 178.926 165.981 178.871 165.945C178.631 165.815 178.447 165.484 178.447 165.189C178.447 164.931 178.576 164.617 178.76 164.507L178.963 164.378C178.981 164.36 179 164.323 179 164.305C179 164.268 178.981 164.249 178.981 164.231L178.779 164.12C178.594 164.01 178.447 163.696 178.447 163.438C178.447 162.904 178.834 162.535 179.405 162.535C179.939 162.535 180.013 162.554 180.197 162.665C180.474 162.812 180.64 163.107 180.64 163.42C180.64 163.678 180.492 163.973 180.345 164.083L180.087 164.249C180.068 164.249 180.068 164.268 180.068 164.305C180.068 164.341 180.105 164.378 180.197 164.415C180.437 164.544 180.64 164.876 180.64 165.17C180.64 165.465 180.474 165.778 180.271 165.908L180.087 166C180.068 166.018 180.068 166.037 180.068 166.073C180.068 166.11 180.068 166.129 180.142 166.147C180.4 166.257 180.64 166.608 180.64 166.921C180.64 167.418 180.252 167.805 179.736 167.824H179.442C179.368 167.824 179.331 167.86 179.331 167.916L179.35 167.953L179.552 168.137C179.663 168.247 179.755 168.469 179.755 168.69C179.755 169.261 179.368 169.593 178.686 169.593C177.949 169.593 177.562 169.298 177.562 168.727C177.562 168.469 177.691 168.192 177.857 168.045C177.968 167.953 178.005 167.916 178.005 167.897C178.005 167.86 177.949 167.824 177.894 167.824H174.154ZM177.507 160.748C178.097 160.748 178.281 160.785 178.447 160.877C178.723 161.061 178.871 161.32 178.871 161.633C178.871 161.927 178.723 162.222 178.484 162.388C178.281 162.499 178.207 162.517 177.728 162.535H177.507L174.062 162.517C173.564 162.517 173.159 162.13 173.159 161.651C173.159 161.172 173.564 160.748 174.025 160.748L177.507 160.748ZM175.314 171.361C175.83 171.361 176.217 171.712 176.217 172.209C176.217 172.744 175.793 173.112 175.185 173.112C174.448 173.112 174.025 172.799 174.025 172.228C174.025 171.675 174.411 171.343 175.075 171.343L175.314 171.361ZM176.825 169.593C177.599 169.593 177.986 169.869 177.986 170.44C177.986 170.772 177.82 171.067 177.526 171.214C177.36 171.306 177.231 171.343 176.881 171.343C176.199 171.343 175.793 171.03 175.793 170.514C175.793 169.924 176.162 169.593 176.825 169.593Z" fill="white"/>
<path d="M182.369 169.537C182.756 169.537 182.904 169.556 183.069 169.667C183.327 169.814 183.493 170.09 183.493 170.385C183.493 170.698 183.309 171.011 183.051 171.159C182.885 171.251 182.756 171.269 182.424 171.269C182.093 171.269 181.945 171.251 181.78 171.159C181.522 171.03 181.319 170.698 181.319 170.403C181.319 169.85 181.687 169.537 182.369 169.537ZM181.798 162.609C181.945 162.535 182.093 162.499 182.406 162.499C183.143 162.499 183.53 162.794 183.53 163.365C183.53 163.936 183.106 164.249 182.424 164.249C181.761 164.249 181.337 163.936 181.337 163.42C181.337 163.088 181.522 162.757 181.798 162.609ZM187.86 171.306C188.376 171.306 188.744 171.656 188.744 172.154C188.744 172.688 188.358 173.038 187.749 173.038H184.157C183.456 173.038 183.069 172.725 183.069 172.154C183.069 171.859 183.254 171.546 183.512 171.398C183.677 171.306 183.769 171.306 184.267 171.306H187.86ZM187.823 160.748C188.376 160.748 188.781 161.117 188.781 161.633C188.781 162.186 188.394 162.499 187.768 162.499H184.046C183.493 162.499 183.088 162.149 183.088 161.633C183.088 161.135 183.475 160.748 184.009 160.748H187.823ZM187.878 166.037C188.376 166.037 188.763 166.423 188.763 166.884C188.763 167.418 188.376 167.787 187.805 167.787H185.815C185.225 167.787 184.838 167.418 184.838 166.921C184.838 166.423 185.244 166.037 185.741 166.037H187.878ZM188.652 162.738C188.8 162.609 189.076 162.535 189.481 162.535C190.126 162.535 190.532 162.867 190.532 163.402C190.532 163.659 190.384 163.991 190.2 164.102C189.997 164.231 189.961 164.249 189.961 164.286C189.961 164.323 189.997 164.36 190.126 164.415C190.347 164.526 190.532 164.857 190.532 165.133C190.532 165.705 190.145 166.037 189.481 166.037C189.076 166.037 188.966 166.018 188.781 165.908C188.505 165.76 188.339 165.465 188.339 165.152C188.339 164.894 188.505 164.581 188.689 164.47L188.874 164.36C188.892 164.341 188.91 164.304 188.91 164.286C188.91 164.268 188.892 164.231 188.874 164.212L188.634 164.046C188.486 163.954 188.358 163.641 188.358 163.402C188.358 163.18 188.486 162.904 188.652 162.738ZM190.513 168.671C190.513 168.948 190.347 169.261 190.163 169.371L189.997 169.482C189.961 169.5 189.942 169.519 189.942 169.556C189.942 169.593 189.961 169.593 190.163 169.722C190.347 169.832 190.513 170.146 190.513 170.403C190.513 170.993 190.126 171.288 189.389 171.288C188.708 171.288 188.339 170.974 188.339 170.422C188.339 170.09 188.523 169.758 188.781 169.648C188.855 169.611 188.892 169.593 188.892 169.556C188.892 169.519 188.874 169.5 188.874 169.5L188.597 169.298C188.45 169.206 188.339 168.929 188.339 168.671C188.339 168.119 188.726 167.805 189.408 167.805C190.126 167.805 190.513 168.119 190.513 168.671Z" fill="white"/>
<path d="M522.326 146.869V150.48H521.638V146.869H520.333V146.312H523.631V146.869H522.326ZM528.127 150.48V147H528.107L526.742 150.48H526.307L524.941 147H524.921V150.48H524.233V146.312H525.295L526.539 149.479L527.763 146.312H528.815V150.48H528.127Z" fill="white"/>
<path d="M232.181 168.659H232.765V169.728H231.667V168.659L232.047 167.498H232.596V167.709L232.181 168.659ZM234.467 168.659V169.728H233.37V168.659L233.75 167.498H234.298V167.709L233.883 168.659H234.467Z" fill="white"/>
<path d="M239.325 168.968V171.396C239.325 172.268 238.72 172.865 237.827 172.865H236.089V167.498H237.827C238.72 167.498 239.325 168.096 239.325 168.968ZM238.586 169.039C238.586 168.525 238.256 168.166 237.672 168.166H236.828V172.197H237.672C238.221 172.197 238.586 171.873 238.586 171.325V169.039Z" fill="white"/>
<path d="M241.468 168.166V169.833H243.466V170.509H241.468V172.197H243.958V172.865H240.729V167.498H243.958V168.166H241.468Z" fill="white"/>
<path d="M248.598 170.544V172.865H247.859V171.247H246.107V172.865H245.369V170.586L246.508 167.498H247.479L248.598 170.544ZM247.859 170.586L247.036 168.314H246.945L246.122 170.586H247.859Z" fill="white"/>
<path d="M253.245 167.498V168.166H252V172.865H251.254V168.166H250.009V167.498H253.245Z" fill="white"/>
<path d="M257.878 167.498V172.865H257.139V170.516H255.388V172.865H254.649V167.498H255.388V169.841H257.139V167.498H257.878Z" fill="white"/>
<path d="M265.92 168.166V172.197H267.158V172.865H263.929V172.197H265.174V168.166H263.929V167.498H267.158V168.166H265.92Z" fill="white"/>
<path d="M271.826 171.388C271.826 172.31 271.165 172.936 270.201 172.936C269.223 172.936 268.562 172.288 268.562 171.374V171.304H269.294V171.388C269.294 171.908 269.66 172.268 270.201 172.268C270.708 172.268 271.073 171.908 271.073 171.438C271.073 170.994 270.834 170.762 270.398 170.586L269.688 170.34C268.822 170.03 268.562 169.481 268.562 168.897C268.562 168.025 269.216 167.414 270.159 167.414C271.151 167.414 271.791 168.047 271.791 168.947V169.031H271.052V168.947C271.052 168.44 270.701 168.082 270.159 168.082C269.66 168.082 269.315 168.405 269.315 168.855C269.315 169.277 269.554 169.481 269.955 169.637L270.75 169.925C271.566 170.221 271.826 170.776 271.826 171.388Z" fill="white"/>
<path d="M281.085 167.498V168.166H279.84V172.865H279.095V168.166H277.85V167.498H281.085Z" fill="white"/>
<path d="M285.718 167.498V172.865H284.979V170.516H283.228V172.865H282.489V167.498H283.228V169.841H284.979V167.498H285.718Z" fill="white"/>
<path d="M287.868 168.166V169.833H289.866V170.509H287.868V172.197H290.358V172.865H287.129V167.498H290.358V168.166H287.868Z" fill="white"/>
<path d="M297.401 168.166V169.749H299.673V170.417H297.401V172.865H296.663V167.498H299.814V168.166H297.401Z" fill="white"/>
<path d="M303.04 168.166V172.197H304.278V172.865H301.049V172.197H302.294V168.166H301.049V167.498H304.278V168.166H303.04Z" fill="white"/>
<path d="M307.926 170.678L308.939 172.521V172.865H308.263L307.145 170.776H306.378V172.865H305.64V167.498H307.292C308.292 167.498 308.96 168.166 308.96 169.145C308.96 169.896 308.566 170.46 307.926 170.678ZM307.208 170.115C307.813 170.115 308.201 169.742 308.201 169.145C308.201 168.553 307.821 168.166 307.208 168.166H306.378V170.115H307.208Z" fill="white"/>
<path d="M313.586 171.388C313.586 172.31 312.925 172.936 311.961 172.936C310.983 172.936 310.322 172.288 310.322 171.374V171.304H311.054V171.388C311.054 171.908 311.419 172.268 311.961 172.268C312.467 172.268 312.833 171.908 312.833 171.438C312.833 170.994 312.594 170.762 312.158 170.586L311.448 170.34C310.583 170.03 310.322 169.481 310.322 168.897C310.322 168.025 310.976 167.414 311.919 167.414C312.911 167.414 313.551 168.047 313.551 168.947V169.031H312.812V168.947C312.812 168.44 312.46 168.082 311.919 168.082C311.419 168.082 311.075 168.405 311.075 168.855C311.075 169.277 311.314 169.481 311.715 169.637L312.51 169.925C313.326 170.221 313.586 170.776 313.586 171.388Z" fill="white"/>
<path d="M318.206 167.498V168.166H316.96V172.865H316.214V168.166H314.969V167.498H318.206Z" fill="white"/>
<path d="M327.506 171.388C327.506 172.31 326.845 172.936 325.881 172.936C324.903 172.936 324.242 172.288 324.242 171.374V171.304H324.974V171.388C324.974 171.908 325.339 172.268 325.881 172.268C326.387 172.268 326.753 171.908 326.753 171.438C326.753 170.994 326.514 170.762 326.078 170.586L325.368 170.34C324.502 170.03 324.242 169.481 324.242 168.897C324.242 168.025 324.896 167.414 325.839 167.414C326.831 167.414 327.471 168.047 327.471 168.947V169.031H326.732V168.947C326.732 168.44 326.38 168.082 325.839 168.082C325.339 168.082 324.995 168.405 324.995 168.855C324.995 169.277 325.234 169.481 325.635 169.637L326.43 169.925C327.246 170.221 327.506 170.776 327.506 171.388Z" fill="white"/>
<path d="M332.125 167.498V168.166H330.88V172.865H330.134V168.166H328.889V167.498H332.125Z" fill="white"/>
<path d="M334.268 168.166V169.833H336.266V170.509H334.268V172.197H336.758V172.865H333.53V167.498H336.758V168.166H334.268Z" fill="white"/>
<path d="M341.412 169.145C341.412 170.122 340.737 170.783 339.723 170.783H338.901V172.865H338.162V167.498H339.745C340.744 167.498 341.412 168.166 341.412 169.145ZM340.645 169.145C340.645 168.553 340.265 168.166 339.653 168.166H338.901V170.115H339.653C340.265 170.115 340.645 169.742 340.645 169.145Z" fill="white"/>
<path d="M343.027 167.498H344.125V168.567L343.745 169.728H343.196V169.517L343.604 168.567H343.027V167.498ZM345.827 167.498V168.567L345.447 169.728H344.898V169.517L345.306 168.567H344.73V167.498H345.827Z" fill="white"/>
</svg>