<svg viewBox="0 0 60 60"
     fill="none"
     xmlns="http://www.w3.org/2000/svg">
    <path d="M0 0H60V60H0V0Z" fill="#C0FE04"/>
    <path d="M60 60V60.5H60.5V60H60ZM59.5 0V60H60.5V0H59.5ZM60 59.5H0V60.5H60V59.5Z" fill="#C0FE04"/>
    <g clip-path="url(#clip0)">
        <path d="M29.9998 18C23.3748 18 17.9368 23.4882 18.0006 30.1079C18.0584 36.1223 22.5482 41.0774 28.3636 41.8699C28.4358 41.8795 28.4995 41.8232 28.4995 41.7506V34.4338C28.4995 34.3771 28.4596 34.3288 28.4044 34.3166C25.0285 33.5862 22.4999 30.5848 22.4993 26.9925C22.4993 22.8575 25.8885 19.4837 30.0268 19.4986C34.1561 19.5134 37.4991 22.8628 37.4991 26.9925C37.4991 30.5842 34.97 33.5856 31.5946 34.3166C31.5393 34.3288 31.4995 34.3771 31.4995 34.4338V41.7506C31.4995 41.8232 31.5638 41.8795 31.6354 41.8699C37.489 41.0726 41.9995 36.0581 41.9995 29.9907C42 23.3683 36.6274 18 29.9998 18Z" fill="black"/>
    </g>
    <defs>
        <clipPath id="clip0">
            <rect width="24" height="23.871" fill="white" transform="translate(18 18)"/>
        </clipPath>
    </defs>
</svg>
