<svg version="1.1" id="Layer_1" xmlns="http://www.w3.org/2000/svg" xmlns:xlink="http://www.w3.org/1999/xlink" x="0px" y="0px"
	 width="100%" viewBox="0 0 512 512" enable-background="new 0 0 512 512" xml:space="preserve">
<path fill="none" opacity="1.000000" stroke="none" 
	d="
M513.000000,366.000000 
	C513.000000,414.974487 513.000000,463.948975 513.000000,512.961731 
	C342.447693,512.961731 171.895355,512.961731 1.000000,512.961731 
	C1.000000,453.979004 1.000000,394.957367 1.383941,335.601990 
	C2.841531,341.312012 3.933128,347.352631 4.985733,353.399994 
	C9.639214,380.134918 19.121691,404.704376 36.435513,426.030670 
	C50.312592,443.123688 67.245628,455.696991 88.020210,463.008179 
	C98.879166,466.829803 110.039680,468.893219 121.532631,470.255798 
	C136.466599,472.026428 151.019669,470.893707 165.168869,466.791260 
	C181.667557,462.007660 196.615097,454.036011 209.985626,442.790192 
	C222.974167,431.865723 233.174622,418.916046 240.373062,403.901001 
	C250.784409,382.184235 254.376587,359.107758 251.077713,335.023315 
	C249.488693,323.422333 246.281601,312.378784 241.336700,301.859344 
	C234.015976,286.285767 224.357773,272.507477 210.975845,261.300690 
	C199.955063,252.071274 188.081833,244.698212 174.547546,239.853714 
	C163.090134,235.752655 151.429245,233.159302 139.280243,231.752594 
	C126.836647,230.311768 114.769669,231.453613 102.724869,233.795639 
	C95.465057,235.207260 88.400459,237.622803 80.283836,239.852081 
	C86.281052,224.344620 92.008064,209.436951 97.809395,194.558258 
	C106.335060,172.692413 118.498283,153.206573 135.565964,136.918457 
	C146.925461,126.077766 159.942078,118.650482 175.622101,115.868111 
	C182.409683,114.663673 187.374832,111.087944 189.178299,103.314499 
	C192.294022,89.884872 196.445999,76.696083 200.146164,63.401508 
	C203.532822,51.233383 198.213959,44.039227 186.124924,43.057861 
	C160.444122,40.973137 136.916214,48.072483 115.294151,61.399345 
	C92.711250,75.318420 74.463394,94.103485 59.226070,115.598312 
	C40.723270,141.699661 26.968719,170.339920 17.093861,200.759537 
	C10.915480,219.792099 6.531153,239.275940 3.929220,259.152740 
	C3.404536,263.160950 1.999273,267.053894 0.999998,271.000000 
	C1.000000,181.035141 1.000000,91.070274 1.000000,1.052705 
	C171.564880,1.052705 342.129791,1.052705 513.000000,1.052705 
	C513.000000,112.354584 513.000000,223.709442 512.608582,335.388367 
	C510.539490,328.338074 509.521973,320.734894 507.059448,313.632690 
	C499.879608,292.924866 488.552460,274.991913 471.442963,260.711487 
	C460.238403,251.359619 447.977417,244.152740 434.419983,239.263306 
	C423.653473,235.380447 412.620728,231.980957 400.943726,232.008301 
	C390.789581,232.032074 380.532867,231.282623 370.511780,232.474655 
	C361.260925,233.575089 352.262909,236.801163 341.832886,239.422958 
	C347.303741,224.747208 352.276611,210.257416 358.077332,196.106979 
	C367.578339,172.930008 380.005829,151.498703 398.975006,134.632324 
	C409.592865,125.191490 421.834137,118.586327 436.041199,115.947113 
	C442.900635,114.672852 448.198486,111.543579 450.117828,103.888351 
	C453.823944,89.106842 458.233612,74.502190 461.973846,59.728588 
	C463.638245,53.154278 460.208984,45.715069 451.953003,44.068794 
	C439.379608,41.561607 426.715393,42.467266 414.381836,45.372288 
	C389.051880,51.338448 367.881866,65.091263 349.087036,82.545708 
	C335.397034,95.259384 324.003082,109.999802 313.752960,125.632538 
	C300.020294,146.576630 289.307159,169.008011 281.078308,192.586899 
	C274.658539,210.982025 269.136383,229.670868 266.963928,249.160385 
	C265.320282,263.906219 263.020966,278.614502 262.200439,293.405334 
	C261.542297,305.268738 262.234589,317.263519 263.129272,329.139648 
	C263.921570,339.656128 264.996307,350.281891 267.392731,360.520905 
	C273.085297,384.843262 282.071442,407.655792 298.487213,427.253113 
	C312.232452,443.662292 328.677277,455.861145 348.691437,462.884094 
	C368.222748,469.737579 388.348358,472.704773 409.213501,470.125885 
	C423.165649,468.401398 436.220703,464.295135 448.614288,457.984070 
	C463.936920,450.181549 476.925262,439.409149 487.598755,425.897247 
	C497.693298,413.118195 505.250397,399.060791 509.018280,383.113312 
	C510.364960,377.413483 511.673828,371.704681 513.000000,366.000000 
z"/>
<path fill="#000000" opacity="1.000000" stroke="none" 
	d="
M0.999998,271.468658 
	C1.999273,267.053894 3.404536,263.160950 3.929220,259.152740 
	C6.531153,239.275940 10.915480,219.792099 17.093861,200.759537 
	C26.968719,170.339920 40.723270,141.699661 59.226070,115.598312 
	C74.463394,94.103485 92.711250,75.318420 115.294151,61.399345 
	C136.916214,48.072483 160.444122,40.973137 186.124924,43.057861 
	C198.213959,44.039227 203.532822,51.233383 200.146164,63.401508 
	C196.445999,76.696083 192.294022,89.884872 189.178299,103.314499 
	C187.374832,111.087944 182.409683,114.663673 175.622101,115.868111 
	C159.942078,118.650482 146.925461,126.077766 135.565964,136.918457 
	C118.498283,153.206573 106.335060,172.692413 97.809395,194.558258 
	C92.008064,209.436951 86.281052,224.344620 80.283836,239.852081 
	C88.400459,237.622803 95.465057,235.207260 102.724869,233.795639 
	C114.769669,231.453613 126.836647,230.311768 139.280243,231.752594 
	C151.429245,233.159302 163.090134,235.752655 174.547546,239.853714 
	C188.081833,244.698212 199.955063,252.071274 210.975845,261.300690 
	C224.357773,272.507477 234.015976,286.285767 241.336700,301.859344 
	C246.281601,312.378784 249.488693,323.422333 251.077713,335.023315 
	C254.376587,359.107758 250.784409,382.184235 240.373062,403.901001 
	C233.174622,418.916046 222.974167,431.865723 209.985626,442.790192 
	C196.615097,454.036011 181.667557,462.007660 165.168869,466.791260 
	C151.019669,470.893707 136.466599,472.026428 121.532631,470.255798 
	C110.039680,468.893219 98.879166,466.829803 88.020210,463.008179 
	C67.245628,455.696991 50.312592,443.123688 36.435513,426.030670 
	C19.121691,404.704376 9.639214,380.134918 4.985733,353.399994 
	C3.933128,347.352631 2.841531,341.312012 1.383941,335.134155 
	C1.000000,313.979095 1.000000,292.958221 0.999998,271.468658 
z"/>
<path fill="#000000" opacity="1.000000" stroke="none" 
	d="
M513.000000,365.531342 
	C511.673828,371.704681 510.364960,377.413483 509.018280,383.113312 
	C505.250397,399.060791 497.693298,413.118195 487.598755,425.897247 
	C476.925262,439.409149 463.936920,450.181549 448.614288,457.984070 
	C436.220703,464.295135 423.165649,468.401398 409.213501,470.125885 
	C388.348358,472.704773 368.222748,469.737579 348.691437,462.884094 
	C328.677277,455.861145 312.232452,443.662292 298.487213,427.253113 
	C282.071442,407.655792 273.085297,384.843262 267.392731,360.520905 
	C264.996307,350.281891 263.921570,339.656128 263.129272,329.139648 
	C262.234589,317.263519 261.542297,305.268738 262.200439,293.405334 
	C263.020966,278.614502 265.320282,263.906219 266.963928,249.160385 
	C269.136383,229.670868 274.658539,210.982025 281.078308,192.586899 
	C289.307159,169.008011 300.020294,146.576630 313.752960,125.632538 
	C324.003082,109.999802 335.397034,95.259384 349.087036,82.545708 
	C367.881866,65.091263 389.051880,51.338448 414.381836,45.372288 
	C426.715393,42.467266 439.379608,41.561607 451.953003,44.068794 
	C460.208984,45.715069 463.638245,53.154278 461.973846,59.728588 
	C458.233612,74.502190 453.823944,89.106842 450.117828,103.888351 
	C448.198486,111.543579 442.900635,114.672852 436.041199,115.947113 
	C421.834137,118.586327 409.592865,125.191490 398.975006,134.632324 
	C380.005829,151.498703 367.578339,172.930008 358.077332,196.106979 
	C352.276611,210.257416 347.303741,224.747208 341.832886,239.422958 
	C352.262909,236.801163 361.260925,233.575089 370.511780,232.474655 
	C380.532867,231.282623 390.789581,232.032074 400.943726,232.008301 
	C412.620728,231.980957 423.653473,235.380447 434.419983,239.263306 
	C447.977417,244.152740 460.238403,251.359619 471.442963,260.711487 
	C488.552460,274.991913 499.879608,292.924866 507.059448,313.632690 
	C509.521973,320.734894 510.539490,328.338074 512.608582,335.856201 
	C513.000000,345.687561 513.000000,355.375122 513.000000,365.531342 
z"/>
</svg>